<?xml version="1.0" standalone="no"?><!DOCTYPE svg PUBLIC "-//W3C//DTD SVG 1.1//EN" "http://www.w3.org/Graphics/SVG/1.1/DTD/svg11.dtd"><svg t="1658065977454" class="icon" viewBox="0 0 1024 1024" version="1.1" xmlns="http://www.w3.org/2000/svg" p-id="1190" xmlns:xlink="http://www.w3.org/1999/xlink" width="32" height="32"><defs><style type="text/css">@font-face { font-family: feedback-iconfont; src: url("//at.alicdn.com/t/font_1031158_u69w8yhxdu.woff2?t=1630033759944") format("woff2"), url("//at.alicdn.com/t/font_1031158_u69w8yhxdu.woff?t=1630033759944") format("woff"), url("//at.alicdn.com/t/font_1031158_u69w8yhxdu.ttf?t=1630033759944") format("truetype"); }
</style></defs><path d="M824.32 532.48C923.2896 532.48 1003.52 443.0848 1003.52 332.8S923.2896 133.12 824.32 133.12 645.12 222.5152 645.12 332.8 725.3504 532.48 824.32 532.48z m-624.64 0C100.7104 532.48 20.48 443.0848 20.48 332.8S100.7104 133.12 199.68 133.12 378.88 222.5152 378.88 332.8 298.6496 532.48 199.68 532.48z" fill="#2F2727" p-id="1191"></path><path d="M51.2 51.2m460.8 0l0 0q460.8 0 460.8 460.8l0 0q0 460.8-460.8 460.8l0 0q-460.8 0-460.8-460.8l0 0q0-460.8 460.8-460.8Z" fill="#FDF0EA" p-id="1192"></path><path d="M604.16 585.6256c16.42496-73.13408 51.31264-103.63904 104.68352-91.52512 53.36064 12.12416 74.73152 48.46592 64.12288 109.056-5.0688 66.58048 20.56192 99.88096 76.9024 99.88096 2.22208 2.88768-95.88736 82.26816-165.72416-17.3568-26.0096-57.9584-52.67456-91.32032-79.98464-100.06528z m-184.33024 0c-16.42496-73.13408-51.31264-103.63904-104.68352-91.52512-53.36064 12.12416-74.74176 48.46592-64.12288 109.056 5.0688 66.58048-20.56192 99.88096-76.9024 99.88096-2.22208 2.88768 95.88736 82.26816 165.72416-17.3568 26.0096-57.9584 52.67456-91.32032 79.9744-100.06528z" fill="#2F2727" p-id="1193"></path><path d="M696.40192 534.65088l10.57792 3.85024a24.576 24.576 0 0 1 14.6944 31.49824l-3.86048 10.58816a35.84 35.84 0 0 1-45.93664 21.42208l-10.57792-3.85024a24.576 24.576 0 0 1-14.6944-31.49824l3.86048-10.58816a35.84 35.84 0 0 1 45.93664-21.42208z m-362.4448 0l-10.57792 3.85024a24.576 24.576 0 0 0-14.6944 31.49824l3.86048 10.58816a35.84 35.84 0 0 0 45.93664 21.42208l10.57792-3.85024a24.576 24.576 0 0 0 14.6944-31.49824l-3.86048-10.58816a35.84 35.84 0 0 0-45.93664-21.42208z" fill="#D8D8D8" p-id="1194"></path><path d="M688.31232 544.50176l11.55072 4.1984a19.6608 19.6608 0 0 1 11.74528 25.21088l-4.1984 11.54048a29.4912 29.4912 0 0 1-37.80608 17.63328l-11.54048-4.1984a19.6608 19.6608 0 0 1-11.75552-25.21088l4.1984-11.54048a29.4912 29.4912 0 0 1 37.80608-17.63328z m-346.38848 0l-11.54048 4.1984a19.6608 19.6608 0 0 0-11.75552 25.21088l4.1984 11.54048a29.4912 29.4912 0 0 0 37.80608 17.63328l11.55072-4.1984a19.6608 19.6608 0 0 0 11.74528-25.21088l-4.1984-11.54048a29.4912 29.4912 0 0 0-37.80608-17.63328zM507.17696 799.9488c53.71904 0 96.98304-32.1024 96.98304-57.5488 0-25.4464-194.56-25.4464-194.56 0s43.84768 57.5488 97.57696 57.5488z" fill="#2F2727" p-id="1195"></path><path d="M524.92288 818.93376l0.59392 0.7168c35.96288 20.54144 73.65632 21.17632 114.74944 1.7408a15.36 15.36 0 1 1 13.13792 27.76064c-49.07008 23.21408-96.45056 22.80448-140.544-1.3824-44.09344 24.18688-91.47392 24.60672-140.544 1.3824a15.36 15.36 0 0 1 13.12768-27.77088c41.09312 19.44576 78.78656 18.81088 114.75968-1.7408a15.27808 15.27808 0 0 1 12.65664-5.5296c4.4544-0.256 8.9088 1.45408 12.06272 4.82304z" fill="#2F2727" p-id="1196"></path><path d="M747.95008 751.94368c52.67456 0 95.37536-18.16576 95.37536-40.57088s-42.7008-40.57088-95.37536-40.57088c-52.6848 0-95.3856 18.16576-95.3856 40.57088s42.7008 40.57088 95.3856 40.57088z m-471.90016 0c52.6848 0 95.3856-18.16576 95.3856-40.57088s-42.7008-40.57088-95.3856-40.57088c-52.67456 0-95.37536 18.16576-95.37536 40.57088s42.7008 40.57088 95.37536 40.57088z" fill="#D36F3E" fill-opacity=".3" p-id="1197"></path></svg>